# Blender v2.78 (sub 0) OBJ File: ''
# www.blender.org
mtllib Tray.mtl
o Cube_Cube.009
v -1.645728 1.872916 1.215477
v -1.645728 1.872916 -1.218509
v -1.605249 1.872916 1.215477
v -1.605249 1.872916 -1.218509
v -1.645728 0.612909 1.215477
v -1.645728 0.612909 -1.218509
v -1.605249 0.612909 1.215477
v -1.605249 0.612909 -1.218509
v -1.695489 0.646691 1.435318
v -1.695489 0.646691 -1.438350
v -1.555489 0.646691 1.435318
v -1.555489 0.646691 -1.438350
v -1.695489 0.426691 1.435318
v -1.695489 0.426691 -1.438350
v -1.555489 0.426691 1.435318
v -1.555489 0.426691 -1.438350
v -0.218621 0.646769 -1.433678
v 1.706679 0.105271 -1.433678
v -0.218621 0.646769 -1.573678
v 1.706679 0.105271 -1.573678
v -0.278186 0.434986 -1.433678
v 1.647114 -0.106512 -1.433678
v -0.278186 0.434986 -1.573678
v 1.647114 -0.106512 -1.573678
v -1.695575 0.646691 -1.433678
v -0.218287 0.646691 -1.433678
v -1.695575 0.646691 -1.573678
v -0.218287 0.646691 -1.573678
v -1.695575 0.426691 -1.433678
v -0.218287 0.426691 -1.433678
v -1.695575 0.426691 -1.573678
v -0.218287 0.426691 -1.573678
v -1.695575 0.646691 1.571219
v -0.218287 0.646691 1.571219
v -1.695575 0.646691 1.431219
v -0.218287 0.646691 1.431219
v -1.695575 0.426691 1.571219
v -0.218287 0.426691 1.571219
v -1.695575 0.426691 1.431219
v -0.218287 0.426691 1.431219
v -0.218621 0.646769 1.571219
v 1.706679 0.105271 1.571219
v -0.218621 0.646769 1.431219
v 1.706679 0.105271 1.431219
v -0.278186 0.434986 1.571219
v 1.647114 -0.106512 1.571219
v -0.278186 0.434986 1.431219
v 1.647114 -0.106512 1.431219
v -1.726709 -0.133656 1.619591
v -1.726709 0.106344 1.619591
v -1.726709 -0.133656 -1.600409
v -1.726709 0.106344 -1.600409
v 1.733291 -0.133656 1.619591
v 1.733291 0.106344 1.619591
v 1.733291 -0.133656 -1.600409
v 1.733291 0.106344 -1.600409
vn 0.0000 -1.0000 0.0000
vn -1.0000 0.0000 -0.0000
vn 0.0000 1.0000 0.0000
vn 1.0000 -0.0000 0.0000
vn 0.0000 0.0000 -1.0000
vn 0.0000 0.0000 1.0000
vn 0.2707 0.9626 0.0000
vn -0.2707 -0.9626 0.0000
vn -0.9627 0.2707 0.0000
vn 0.9627 -0.2707 0.0000
usemtl None
s off
f 1//1 2//1 4//1 3//1
f 3//2 4//2 8//2 7//2
f 7//3 8//3 6//3 5//3
f 5//4 6//4 2//4 1//4
f 3//5 7//5 5//5 1//5
f 8//6 4//6 2//6 6//6
f 9//1 10//1 12//1 11//1
f 11//2 12//2 16//2 15//2
f 15//3 16//3 14//3 13//3
f 13//4 14//4 10//4 9//4
f 11//5 15//5 13//5 9//5
f 16//6 12//6 10//6 14//6
f 17//7 18//7 20//7 19//7
f 19//5 20//5 24//5 23//5
f 23//8 24//8 22//8 21//8
f 21//6 22//6 18//6 17//6
f 19//9 23//9 21//9 17//9
f 24//10 20//10 18//10 22//10
f 25//3 26//3 28//3 27//3
f 27//5 28//5 32//5 31//5
f 31//1 32//1 30//1 29//1
f 29//6 30//6 26//6 25//6
f 27//2 31//2 29//2 25//2
f 32//4 28//4 26//4 30//4
f 33//3 34//3 36//3 35//3
f 35//5 36//5 40//5 39//5
f 39//1 40//1 38//1 37//1
f 37//6 38//6 34//6 33//6
f 35//2 39//2 37//2 33//2
f 40//4 36//4 34//4 38//4
f 41//7 42//7 44//7 43//7
f 43//5 44//5 48//5 47//5
f 47//8 48//8 46//8 45//8
f 45//6 46//6 42//6 41//6
f 43//9 47//9 45//9 41//9
f 48//10 44//10 42//10 46//10
f 49//2 50//2 52//2 51//2
f 51//5 52//5 56//5 55//5
f 55//4 56//4 54//4 53//4
f 53//6 54//6 50//6 49//6
f 51//1 55//1 53//1 49//1
f 56//3 52//3 50//3 54//3
